<svg xmlns="http://www.w3.org/2000/svg" viewBox="0 0 1000 1000"><path d="M0 0h1000v1000H0z" style="fill:#fff;fill-opacity:1;stroke:none"/><path d="M373.45 175.125c23.081 0 63.359 5.48 94.964 38.785 19.238 20.274 33.75 27.246 40.691 29.598.536.18 1.106.07 1.532-.29a7.712 7.712 0 0 0-.09-3.452c-6.844-26.856-31.254-88.243-109.844-78.235-.355.024-28.512 1.824-42.125 14.406 3.192-.375 8.348-.812 14.871-.812m146.887 128.84c.805.93 1.594 1.894 2.36 2.879.054-.844.113-1.672.167-2.489a45.317 45.317 0 0 0-2.527-.39m32.527-23.668c28.117 3.332 48.18 17.863 60.828 30.793 11.317 11.562 18.5 23.57 22.004 30.226-9.105-70.218-58.125-75.34-79.375-77.562-3.308-.344-5.922-.617-7.843-1.043a1.57 1.57 0 0 1-1.239-1.547 1.59 1.59 0 0 1 1.246-1.566c83.5-18.688 118.68 38.28 126.88 54.586-.802-14.782-6.97-65.465-53.278-81.864-43.047-15.242-82.137 8.778-88.086 18.164a1.856 1.856 0 0 1-2.215.754 1.863 1.863 0 0 1-1.219-2.004c1.442-11.047 6.313-37.89 20.414-48.484 42.07-31.605 71.493-23.3 90.957-17.805 6.657 1.88 12.41 3.504 17.028 3.067a.526.526 0 0 0 .472-.418.538.538 0 0 0-.234-.606c-5.496-3.547-13.582-8.207-24.039-13.851-19.18-10.36-40.434-15.114-61.453-13.754-21.965 1.422-38.39 8.832-48.824 22.023-16.547 20.918-13.735 50.36-11.758 62.047a3.5 3.5 0 0 1-.664 2.723 9.671 9.671 0 0 1-2.387 4.222 9.69 9.69 0 0 1-9.043 2.79c-53.742-11.329-82.05 23.792-92.445 41.105 13.652-13.914 49.418-40.91 111.523-26.469 12.801 2.977 23.746 7.82 32.75 14.473m-27.886 22.562c13.886 3.246 26.586 13.125 37.453 29.329 9.105 13.574 14.605 28.175 16.87 34.921 1.763-10.691 5.016-41.586-10.421-66.543a66.576 66.576 0 0 0-16.785-18.343c-6.13-.696-12.637-.844-19.547-.317-3.305.254-5.942 2.801-6.274 6.059a525.591 525.591 0 0 0-1.296 14.894m-49.707-19.105c-11.098 0-20.598 4.773-27.551 14.21-15.625 21.208-13.715 61.958 16.55 90.93-2.253-13.011-10.074-74.035 38.606-85.785 4.277-1.03 8.48-1.504 12.61-1.43a67.5 67.5 0 0 0-1.465-1.417c-3.5-3.274-7.332-6.086-11.399-8.356-9.75-5.449-19.004-8.152-27.351-8.152m178.18 100.512c.585 4.77.663 9.98.218 15.62l-.035.485a71.897 71.897 0 0 1 7.957-4.191c8.277-16.168 22.074-26.758 41.164-31.543 16.004-4.016 31.152-2.668 37.844-1.715-15.403-13.567-32.239-11.59-32.414-11.57-.051.007-.11.011-.16.007-21.594-.68-39.204 9.133-52.258 29.157a91.142 91.142 0 0 0-2.317 3.75m-41.015-34.313c7.765 6.352 30.058 26.7 30.879 51.582 1.714-4.855 4.324-11.168 8.07-17.687-1.192-8.84-4.23-16.04-9.098-21.504-6.594-7.403-16.633-11.567-29.851-12.39m39.312 37.355c-4.562 8.503-7.156 16.347-8.363 20.543a77.608 77.608 0 0 1 8.183-6.172c.024-.649.059-1.297.11-1.95.347-4.418.37-8.562.07-12.421m1.797 15.476c-.031 3.84.477 7.61 1.473 11.211a545.69 545.69 0 0 0 1.535-5.09 75.82 75.82 0 0 1 3.66-9.863 69.354 69.354 0 0 0-6.668 3.742m-12.73 9.723c3.75 3.039 7.574 6.445 11.46 10.215a742.273 742.273 0 0 0 1.704-5.371 42.56 42.56 0 0 1-2.422-13.258 76.404 76.404 0 0 0-8.121 6.375 22.6 22.6 0 0 1-.989.84.997.997 0 0 1-.62.48c-.333.25-.669.488-1.013.719m-40.609-16.57c-3.918 0-7.574.75-10.926 2.265-24.175 10.942-19.304 36.54-17.09 44.543 3.793-8.969 18.583-37.66 49.418-29.117 5.375 1.492 10.93.957 15.676-1.387-13.804-10.758-26.418-16.305-37.078-16.305m40.414 49.442c.61 2.582.988 5.332 1.149 8.305.8-2.278 1.601-4.551 2.386-6.805a25.418 25.418 0 0 0-3.535-1.5m-17.195-13.543c-1.082 0-2.2.105-3.348.324-12.105 2.285-23.879 15.871-22.953 36.828 5.414-7.406 23.164-29.484 40.582-26.449-2.508-6.824-7.738-10.703-14.281-10.703m-99.074-119.281c-1.68 30-1.809 75.3 9.515 103.004 4.985 12.191 10.617 32.023 16.2 55.66.507-67.035-3.61-125.61-25.715-158.664m122.25 133.379c10.996 6.64 14.933 20.925 12.601 44.898 6.543-8.766 22.668-35.73-3.187-61.543-.215-.215-.516-.52-.89-.902a186.349 186.349 0 0 0-1.942-1.969 1069.741 1069.741 0 0 1-6.582 19.516m9.492-28.633a39.919 39.919 0 0 0 15.976 19.785c22.27 14.184 34.536 51.976 38.047 64.383 1.86-6.95 3.442-18.434 4.457-26.98 1.305-11.04-.418-21.844-4.984-31.255-10.809-22.257-31.106-25.687-37.07-26.21a1.673 1.673 0 0 1-1.47-1.196 1.665 1.665 0 0 1 .552-1.797c26.347-21.12 67.433 4.637 82.105 15.2-4.191-5.43-9.117-10.876-14.695-16.258-11.684-11.274-26.61-18.45-42.024-20.203-13.285-1.516-24.62.902-33.925 4.953-1.813 3.632-3.344 7.547-4.59 11.75a578.748 578.748 0 0 1-2.38 7.828m-16.972 49.746a5245.835 5245.835 0 0 1-8.957 24.652c-13.691 37.52-26.625 72.957-27.164 86.559-.11 2.762.274 6.59 1 11.289 1.84-5.695 3.613-11.168 5.309-16.41 16.453-50.809 27.105-83.727 29.812-106.09m-58.804 231.406c.039 16.52 3.69 26.664 7.98 32.883 3.445 4.996 7.414 7.59 10.48 8.934-5.562-5.063-14.648-16.868-18.46-41.817M85.378 855.023a1 1 0 0 1-.926-.613c-.55-1.328-.129-3.058 1.3-5.289 7.013-10.96 42.638-38.058 108.368-64.129 54.45-21.597 145.012-48.289 267.254-52.82a150.56 150.56 0 0 1 19.129.5l90.262 8.215c.84.09 1.422-.43 1.672-.934.32-.637.226-1.328-.247-1.851-9.882-10.934-26.316-42.141-25.34-128.301.254-22.48.942-45.516 1.606-67.793.633-21.176 1.258-42.121 1.52-62.371-6.153-26.996-12.454-49.844-17.965-63.325-11.785-28.832-11.328-76.289-9.512-106.406a71.511 71.511 0 0 0-5.074-6.207c-4.567-.258-9.258.192-14.082 1.356-47.352 11.43-39.168 71.82-37.051 83.812a1.853 1.853 0 0 1-.961 1.988c-.73.391-1.621.27-2.223-.3-31.265-29.743-33.168-71.832-17.004-93.778 12.665-17.183 34.157-19.66 57.493-6.617 4.207 2.348 8.172 5.258 11.789 8.64a66.955 66.955 0 0 1 3.027 3.024c1.54.13 3.07.336 4.586.617.45-6.086.918-11.125 1.281-14.68.434-4.222 3.844-7.523 8.114-7.85a107.025 107.025 0 0 1 16.41-.013c-8.215-5.468-17.95-9.523-29.145-12.128-68.27-15.875-104.086 19.007-113.437 30.074a1.312 1.312 0 0 1-1.762.25 1.32 1.32 0 0 1-.445-1.727c3.093-5.969 12.007-21.133 27.879-33.047 19.84-14.894 43.242-19.632 69.554-14.09a7.69 7.69 0 0 0 7.188-2.214 7.86 7.86 0 0 0 1.082-1.422 3.676 3.676 0 0 1-1.254-.192c-7.113-2.41-21.969-9.53-41.5-30.113-41.707-43.953-98.805-38.664-109.828-37.156a1.42 1.42 0 0 1-1.457-.766 1.391 1.391 0 0 1 .234-1.617c13.613-14.23 43.348-16.137 44.606-16.21 72.101-9.177 99.472 40.593 109.304 70.589-.898-14.535.621-35.691 13.492-51.965 10.801-13.652 27.715-21.316 50.266-22.773 21.395-1.387 43.02 3.449 62.531 13.988 10.504 5.668 18.637 10.355 24.172 13.93.93.597 1.36 1.68 1.098 2.757a2.523 2.523 0 0 1-2.23 1.938c-4.993.469-10.91-1.2-17.758-3.133-19.09-5.39-47.934-13.531-89.215 17.48-13.27 9.965-18.063 35.485-19.559 46.598 3.918-5.633 15.668-13.746 31.2-18.808 13.804-4.496 35.234-8.094 58.933.297 21.168 7.492 36.617 22.566 45.922 44.8 7.363 17.594 8.594 34.586 8.781 41.075a1.534 1.534 0 0 1-1.187 1.546 1.522 1.522 0 0 1-1.754-.847c-5.864-12.535-39.215-73.715-123.59-55.899 1.578.23 3.492.434 5.605.653 22.297 2.328 74.52 7.785 81.797 85.097a1.001 1.001 0 0 1-1.918.48c-.074-.179-7.648-18.011-24.195-34.906-11.887-12.132-30.453-25.71-56.227-29.69a68.297 68.297 0 0 1 14.598 16.78c19.336 31.27 10.027 71.496 9.93 71.899a.996.996 0 0 1-.953.765c-.465-.011-.86-.293-.985-.73-.055-.195-5.707-20.133-17.836-38.195-10.633-15.84-22.656-25.364-35.902-28.493a442.739 442.739 0 0 0-.3 4.547c24.616 34.45 28.355 97.946 27.437 170.16 14.722 64.735 28.546 153.016 28.566 193.633 2.016-12.586 5.547-27.437 11.098-44.96a6960.225 6960.225 0 0 1 11.02-34.462c-1.153-6.593-1.81-11.89-1.665-15.511.555-13.914 12.942-47.86 27.29-87.164 3.835-10.512 7.718-21.153 11.46-31.657.211-5.586-.226-10.41-1.36-14.636-19.425-4.637-41.015 27.367-41.234 27.691a.991.991 0 0 1-1.078.414.996.996 0 0 1-.75-.875c-2.258-23.707 10.875-39.21 24.375-41.762 9.551-1.804 17.29 3.13 20.297 12.895a29.12 29.12 0 0 1 4.824 1.867 1074.149 1074.149 0 0 0 6.77-20.11c-4.285-4.195-8.485-7.94-12.586-11.238-5.363 2.915-11.758 3.665-17.934 1.954-31.093-8.614-45.105 22.93-47.601 29.34-.227.581-.809.94-1.418.937a1.44 1.44 0 0 1-1.34-1.016c-1.86-5.906-9.758-35.996 17.738-48.437 13.317-6.028 30.922-.778 50.715 14.808a19.81 19.81 0 0 0 1.52-1.046c5.46-29.743-24.852-55.043-31.016-59.836a1.364 1.364 0 0 1-.438-1.543 1.37 1.37 0 0 1 1.34-.907c14.746.547 25.918 4.973 33.211 13.157 4.68 5.254 7.754 11.992 9.203 20.144a98.34 98.34 0 0 1 1.106-1.738c9.246-14.18 26.105-30.895 53.918-30.063 1.547-.187 19.469-1.91 35.633 13.645.418.402.52 1.02.257 1.543-.261.515-.82.797-1.386.7-4.707-.817-21.453-3.138-39.27 1.331-17.62 4.414-30.586 13.93-38.71 28.363 9.136-3.59 20.042-5.597 32.679-4.16 15.848 1.805 31.184 9.172 43.187 20.75 7.364 7.106 13.606 14.328 18.551 21.477.313.445.25 1.047-.148 1.422-.399.379-1 .402-1.43.066-5.512-4.394-54.367-41.992-83.906-19.387 7.055.77 27.082 4.93 37.922 27.254 4.734 9.754 6.52 20.942 5.168 32.36-1.059 8.918-2.73 21.015-4.711 27.996a1.778 1.778 0 0 1-1.727 1.304h-.004a1.779 1.779 0 0 1-1.73-1.312c-3.184-11.441-15.285-49.856-37.39-63.941a41.85 41.85 0 0 1-15.845-18.473 564.26 564.26 0 0 1-1.277 3.988c.89.883 1.79 1.785 2.684 2.703.367.375.66.676.87.887 29.52 29.465 6.645 60.324 1.759 66.21a1.26 1.26 0 0 1-1.47.356 1.276 1.276 0 0 1-.769-1.32c2.72-24.242-.699-38.617-11.03-45.226-1.345 3.859-2.72 7.753-4.114 11.668-.801 22.171-11.656 55.699-30.59 114.19a15032.69 15032.69 0 0 0-6.496 20.087c1.133 6.418 2.73 14.082 4.515 22.629 8.551 41.02 20.207 96.941 4.387 125.328 7.36.523 39.07 3.207 83.68 13.281 46.933 10.598 118.18 31.777 191.047 72.5.48.27.652.879.386 1.36a1.005 1.005 0 0 1-1.363.386c-72.64-40.594-143.668-61.715-190.46-72.285-50.716-11.453-84.684-13.328-85.02-13.348a1.007 1.007 0 0 1-.832-.53 1.002 1.002 0 0 1 .03-.99c16.63-27.234 4.325-86.245-3.815-125.292-1.454-6.984-2.79-13.387-3.852-19.02a6643.923 6643.923 0 0 0-9.871 30.895c-7.43 23.465-11.223 42.043-12.606 56.746 3.09 45.844 23.055 56.188 23.274 56.293.426.21.648.687.527 1.148a.985.985 0 0 1-1.015.75c-.395-.02-9.723-.613-17.028-11.144-5.5-7.93-10.02-21.988-7.758-46.844a190.234 190.234 0 0 1-.398-12.508c0-38.824-12.691-121.504-26.695-185.187-.305 17.652-.844 35.765-1.391 54.058-.664 22.27-1.352 45.297-1.605 67.758-.97 85.477 15.136 116.219 24.824 126.938 1.027 1.14 1.238 2.703.55 4.086a3.661 3.661 0 0 1-3.644 2.03l-90.262-8.214a148.705 148.705 0 0 0-18.87-.496c-121.958 4.523-212.29 31.144-266.59 52.684-65.298 25.894-100.544 52.597-107.423 63.347-1.406 2.196-1.265 3.137-1.136 3.438a1 1 0 0 1-.922 1.386" style="stroke:none;fill-rule:nonzero;fill:#221f1f;fill-opacity:1"/></svg>